<?xml version="1.0" standalone="no"?>
<!DOCTYPE svg PUBLIC "-//W3C//DTD SVG 20010904//EN"
 "http://www.w3.org/TR/2001/REC-SVG-20010904/DTD/svg10.dtd">
<svg version="1.0" xmlns="http://www.w3.org/2000/svg"
 width="1126.000000pt" height="404.000000pt" viewBox="0 0 1126.000000 404.000000"
 preserveAspectRatio="xMidYMid meet">

<g transform="translate(0.000000,404.000000) scale(0.100000,-0.100000)"
fill="#000000" stroke="none">
<path d="M9517 3666 c-70 -25 -121 -67 -277 -225 -315 -319 -430 -448 -466
-525 -113 -237 -40 -536 256 -1051 103 -179 153 -286 158 -335 4 -42 1 -49
-27 -72 -92 -78 -357 -126 -736 -135 -272 -6 -5656 145 -5670 159 -4 3 34 66
83 140 254 380 426 714 467 907 8 40 15 107 15 149 -1 218 -182 442 -378 468
-44 6 -57 3 -96 -20 -91 -53 -211 -216 -411 -559 -112 -193 -160 -257 -189
-257 -30 0 -66 52 -92 134 -23 75 -35 137 -93 498 -31 192 -58 227 -146 194
-76 -29 -113 -90 -255 -408 -55 -123 -108 -198 -142 -198 -11 0 -33 14 -49 31
-43 46 -73 155 -93 339 -3 25 -5 46 -5 48 -1 1 -6 2 -12 2 -13 0 -56 -95 -79
-176 -27 -92 -32 -169 -20 -269 26 -216 79 -295 197 -295 122 0 241 106 364
325 l33 59 7 -34 c4 -19 12 -69 18 -110 25 -161 105 -364 176 -448 49 -57 101
-82 168 -82 145 0 290 142 576 566 98 146 141 199 141 176 0 -19 -52 -156 -82
-217 -87 -172 -246 -436 -451 -747 l-129 -197 -327 0 c-400 1 -522 -13 -701
-83 -438 -170 -543 -594 -225 -914 133 -135 288 -197 485 -197 158 1 292 37
425 115 125 74 181 139 410 473 37 55 70 102 72 105 14 16 1563 -30 3473 -105
1400 -55 1851 -68 2385 -69 565 -1 730 7 956 45 314 52 449 149 518 373 39
127 23 264 -50 408 -40 79 -138 221 -299 433 -225 296 -300 421 -335 560 -48
193 38 373 245 511 36 24 70 44 76 44 6 0 17 -11 24 -25 8 -14 30 -36 49 -48
33 -20 48 -22 181 -21 132 1 165 5 364 47 120 25 223 50 228 55 15 15 0 32
-30 34 -15 0 20 4 78 7 108 7 194 35 207 68 9 24 -5 26 -34 6 -36 -26 -88 -43
-127 -43 l-31 0 33 20 c37 23 72 75 72 108 0 33 -22 22 -32 -16 -9 -35 -54
-73 -107 -91 -39 -13 -230 -15 -215 -3 5 5 49 19 97 32 66 17 87 27 85 38 -4
23 -213 161 -331 220 -174 86 -289 110 -380 78z m174 -32 c85 -19 263 -107
391 -194 l96 -65 -126 -36 c-69 -19 -128 -41 -130 -47 -5 -16 23 -27 113 -47
44 -9 86 -20 92 -24 7 -4 -76 -24 -185 -46 -160 -32 -218 -40 -312 -40 -133 0
-177 16 -195 73 -15 45 -18 46 -67 21 -75 -38 -151 -95 -209 -155 -106 -112
-144 -211 -137 -353 9 -161 78 -293 333 -631 201 -268 266 -362 316 -462 80
-160 88 -279 29 -422 -62 -147 -142 -216 -313 -266 -358 -106 -1072 -107
-3667 -5 -1062 42 -1990 74 -2490 85 -261 7 -543 15 -626 18 l-151 7 135 198
135 197 62 0 c35 0 519 -14 1076 -30 3149 -93 4516 -128 4669 -119 371 21 612
80 675 163 46 62 26 121 -143 422 -236 424 -302 601 -302 812 0 140 31 225
120 327 104 120 506 529 557 567 52 39 116 66 161 67 13 1 54 -6 93 -15z
m-6655 -554 c126 -61 241 -235 252 -380 11 -164 -91 -434 -288 -760 -129 -214
-457 -711 -605 -917 -11 -16 -73 -105 -139 -198 -197 -282 -240 -326 -391
-401 -131 -64 -195 -78 -355 -79 -112 0 -147 4 -205 22 -274 86 -469 368 -425
613 41 228 266 406 587 464 136 25 208 28 493 20 l279 -7 -21 -31 c-20 -28
-236 -317 -265 -354 -11 -13 -38 -14 -222 -6 -314 15 -424 0 -488 -63 -25 -25
-33 -42 -33 -69 0 -97 121 -211 265 -249 105 -27 157 -3 303 139 163 158 573
711 816 1101 140 224 282 473 320 559 33 73 69 204 62 222 -10 26 -44 14 -81
-28 -20 -24 -93 -126 -162 -228 -143 -211 -213 -298 -306 -388 -102 -97 -193
-131 -270 -99 -121 51 -239 333 -263 630 -9 113 -26 117 -75 15 -72 -152 -177
-288 -257 -335 -64 -38 -148 -39 -188 -3 -38 35 -61 92 -74 188 -17 113 -8
250 20 337 l23 70 9 -50 c34 -215 87 -315 164 -315 66 0 109 62 229 335 89
200 133 261 198 272 32 5 37 2 52 -26 8 -17 27 -107 41 -199 35 -234 70 -410
95 -477 28 -75 72 -125 110 -125 51 0 94 53 231 284 165 278 232 379 308 459
99 106 136 114 256 57z m-1146 -2058 c20 -7 16 -14 -55 -96 -82 -94 -210 -202
-251 -212 -75 -19 -192 25 -275 103 -61 56 -80 109 -55 147 20 31 39 42 108
61 43 12 96 14 280 10 125 -3 236 -9 248 -13z"/>
<path d="M9602 3527 c-58 -62 7 -155 84 -122 34 14 44 32 44 74 0 62 -85 94
-128 48z m82 -23 c19 -18 20 -28 6 -55 -20 -37 -80 -15 -80 30 0 14 29 41 45
41 7 0 21 -7 29 -16z"/>
</g>
</svg>
